# xmcd CD database file
#
# Track frame offsets:
#	150
#	21300
#	40876
#	59863
#	82537
#	102115
#	118998
#	136387
#	151304
#	169703
#	183654
#	203965
#
# Disc length: 2944 seconds
#
# Revision: 0
# Processed by: cddbd v1.5.2PL0 Copyright (c) Steve Scherf et al.
# Submitted via: CDex 1.51
#
DISCID=a40b7e0c
DTITLE=Various Artist - Entre Salsa y Son
DYEAR=2003
DGENRE=Salsa
TTITLE0=Virgen del Cobre - Maria Teresa Vera
TTITLE1=Santa Barbara - Celina Gonzales/Reutilio Dominguez
TTITLE2=El Cuarto de Tula - Sergio Siaba
TTITLE3=La Dama del Son - Joaquin Cortes
TTITLE4=Son de la Madrugada - Adalberto Alvarez
TTITLE5=Tintorera - Arsenio Rodriguez
TTITLE6=Juventud de Cayo Hueso - Arsenio Rodriguez
TTITLE7=No He Visto a Caridad - Arsenio Rodriguez
TTITLE8=A Belen le Toca Ahora - Arsenio Rodriguez
TTITLE9=La Vida Es un Sueno - Arsenio Rodriguez
TTITLE10=Papa Montero - Arsenio Rodriguez
TTITLE11=Que Mala Suerte - Arsenio Rodriguez
EXTD=YEAR: 2003
EXTT0=
EXTT1=
EXTT2=
EXTT3=
EXTT4=
EXTT5=
EXTT6=
EXTT7=
EXTT8=
EXTT9=
EXTT10=
EXTT11=
PLAYORDER=
